<svg xmlns="http://www.w3.org/2000/svg" width="1280" height="640" viewBox="0 0 1280 640" role="img" aria-labelledby="t d"><title id="t">Grounded AI Policy Assistant</title><desc id="d">Grounded evidence retrieval with a protected external LLM trust boundary</desc><defs><linearGradient id="g" x1="0" x2="1"><stop stop-color="#10243f"/><stop offset="1" stop-color="#176b80"/></linearGradient></defs><rect width="1280" height="640" rx="36" fill="url(#g)"/><g fill="#fff"><text x="72" y="105" font-family="Arial,sans-serif" font-size="27" font-weight="700" letter-spacing="3">SOLUTION ARCHITECTURE &amp; AI SECURITY</text><text x="72" y="202" font-family="Arial,sans-serif" font-size="58" font-weight="700">Grounded AI</text><text x="72" y="272" font-family="Arial,sans-serif" font-size="58" font-weight="700">Policy Assistant</text><text x="72" y="340" font-family="Arial,sans-serif" font-size="29" opacity=".9">Evidence · privacy boundary · reversible mapping</text></g><g transform="translate(842 110)" fill="none" stroke="#a9edf4" stroke-width="6"><rect x="8" y="34" width="142" height="280" rx="22"/><rect x="206" y="34" width="142" height="280" rx="22"/><path d="M150 106h56M206 106l-20-18M206 106l-20 18"/><path d="M206 236h-56M150 236l20-18M150 236l20 18"/><path d="M177 18v316" stroke-dasharray="10 10" opacity=".55"/><circle cx="79" cy="106" r="29" fill="#2b8aa0"/><path d="M58 106l14 14 30-34" stroke="#fff" stroke-width="8"/><circle cx="277" cy="106" r="29" fill="#2b8aa0"/><path d="M259 106h36M277 88v36" stroke="#fff" stroke-width="7"/><path d="M42 186h75M42 214h75M239 186h75M239 214h75" opacity=".55"/></g><g font-family="Arial,sans-serif" font-size="23" fill="#d8f8fb"><text x="72" y="565">Grounded Retrieval</text><text x="330" y="565">Privacy Policy</text><text x="560" y="565">Pseudonymization</text><text x="835" y="565">Protected LLM</text></g></svg>